<svg id="HULK__x2B__apps__x2B___x2F___x2B__Rectangle_3__x2B___x3E___x2B__frame_xA0_Image_1_" xmlns="http://www.w3.org/2000/svg" width="179" height="42.032" viewBox="0 0 179 42.032">
  <rect id="Rectangle_1592" data-name="Rectangle 1592" width="176.886" height="39.919" transform="translate(1.057 1.057)" fill="#fff"/>
  <path id="Rectangle_1592_-_Outline" data-name="Rectangle 1592 - Outline" d="M-17.5-17.5h179V24.532h-179Zm176.886,2.114H-15.386v37.8H159.386Z" transform="translate(17.5 17.5)" fill="#00a9a2"/>
  <path id="Path_3766" data-name="Path 3766" d="M20.539,42.032H0V0H20.539V20.026H15.768V12.441H13.31V30.214h2.458V22.478h4.771Z" fill="#00a9a2"/>
  <path id="Path_3767" data-name="Path 3767" d="M340.1,213.585v2.452h4.783v7.736h2.452V206h-2.452v7.585Z" transform="translate(-319.561 -193.559)" fill="#333"/>
  <g id="Group_658" data-name="Group 658" transform="translate(33.288 12.471)">
    <path id="Path_3768" data-name="Path 3768" d="M553.664,217.31a4.586,4.586,0,0,0,.362,1.818,4.669,4.669,0,0,0,2.494,2.494,4.741,4.741,0,0,0,3.636,0,4.669,4.669,0,0,0,2.494-2.494,4.608,4.608,0,0,0,.362-1.818V206.5h2.452v10.81a7.089,7.089,0,0,1-.254,1.9,7.325,7.325,0,0,1-.719,1.7,7.159,7.159,0,0,1-1.117,1.443,7.245,7.245,0,0,1-1.449,1.117,7.14,7.14,0,0,1-5.484.719,7.167,7.167,0,0,1-3.152-1.836,7,7,0,0,1-1.117-1.443,7.154,7.154,0,0,1-.719-1.709,7.075,7.075,0,0,1-.254-1.9V206.5h2.464Z" transform="translate(-551.2 -206.5)" fill="#333"/>
    <path id="Path_3769" data-name="Path 3769" d="M876.3,224.243V206.5h2.452v15.291h7.664v2.452Z" transform="translate(-856.667 -206.5)" fill="#333"/>
    <path id="Path_3770" data-name="Path 3770" d="M1116.952,224.243H1114.5V206.5h2.452Zm2.053-9.892,4.964-6.734a2.314,2.314,0,0,1,.912-.833,2.76,2.76,0,0,1,1.268-.278h1.685l-6.094,8.268a1.417,1.417,0,0,1-.248.254.764.764,0,0,1-.139.091.9.9,0,0,0,.139.1,1.182,1.182,0,0,1,.248.248l6.5,8.781h-1.685a2.76,2.76,0,0,1-1.268-.278,2.359,2.359,0,0,1-.912-.833L1119,215.891a2.658,2.658,0,0,0-.314-.35,2.63,2.63,0,0,0-.284-.229,1.621,1.621,0,0,0-.217-.133.63.63,0,0,1-.1-.054.532.532,0,0,0,.1-.036,1.388,1.388,0,0,0,.217-.121,2.761,2.761,0,0,0,.284-.236A3.515,3.515,0,0,0,1119.005,214.351Z" transform="translate(-1080.482 -206.5)" fill="#333"/>
  </g>
  <path id="Path_3771" data-name="Path 3771" d="M1362,223.679h2.12l5.2-17.779h-2.18Z" transform="translate(-1279.747 -193.465)" fill="#333"/>
  <path id="Path_3772" data-name="Path 3772" d="M2576.71,237.573l.362-.5.272-.368.864-1.172.864-1.178.882-1.2.8-1.093,1-1.353.592-.809.344-.465.084-.115a1.719,1.719,0,0,1,.115-.139.964.964,0,0,1,.175-.163s.091-.066.115-.079a1.024,1.024,0,0,0-.127-.091,1.105,1.105,0,0,1-.211-.2s-.1-.121-.133-.175L2576.3,219.8h1.739a3.586,3.586,0,0,1,.556.054,2.4,2.4,0,0,1,.4.109,1.751,1.751,0,0,1,.211.091s.175.091.205.109a2.45,2.45,0,0,1,.223.157,2.665,2.665,0,0,1,.218.2,2.727,2.727,0,0,1,.344.447l.513.695.622.845.622.839.561.755.568.767.5.664.64.87.749,1.015.568.773a2.638,2.638,0,0,0,.586.568,2.887,2.887,0,0,0,.326.187,1.356,1.356,0,0,0-.447.26,2.381,2.381,0,0,0-.4.417l-.38.519-.357.483-.338.453-.4.55-.356.483-.411.556-.441.6-.441.6-.435.592-.477.646-.447.61-.465.634-.2.278a2.376,2.376,0,0,1-.314.344,2.431,2.431,0,0,1-.441.308,2.6,2.6,0,0,1-.61.223s-.223.048-.362.06c0,0-.32.024-.555.018Z" transform="translate(-2420.714 -206.526)" fill="#333"/>
  <g id="Group_659" data-name="Group 659" transform="translate(92.133 17.411)">
    <path id="Path_3773" data-name="Path 3773" d="M1537.2,298.183a.791.791,0,0,1,.586.181,1.257,1.257,0,0,1,0,1.28.791.791,0,0,1-.586.181h-.773a2.743,2.743,0,0,1-.713-.091,1.948,1.948,0,0,1-.61-.284,1.89,1.89,0,0,1-.471-.483,1.86,1.86,0,0,1-.284-.688,7.9,7.9,0,0,1-2.1,1.323,6.285,6.285,0,0,1-2.488.489,5.616,5.616,0,0,1-1.667-.236,3.849,3.849,0,0,1-1.317-.688,3.159,3.159,0,0,1-.864-1.105,3.477,3.477,0,0,1-.308-1.5,3.546,3.546,0,0,1,.392-1.727,3.2,3.2,0,0,1,1.063-1.153,4.761,4.761,0,0,1,1.558-.646,8.214,8.214,0,0,1,1.878-.205,11.43,11.43,0,0,1,1.9.157,10.788,10.788,0,0,1,1.775.459v-1.027a2.315,2.315,0,0,0-.562-1.721,2.71,2.71,0,0,0-1.927-.55,7.557,7.557,0,0,0-1.963.26,5.316,5.316,0,0,0-1.745.8.678.678,0,0,1-.568.145.98.98,0,0,1-.556-.435.905.905,0,0,1-.211-.67.787.787,0,0,1,.332-.5,5.653,5.653,0,0,1,1.039-.61,7.4,7.4,0,0,1,1.178-.423,9.424,9.424,0,0,1,1.244-.242,9.783,9.783,0,0,1,1.25-.079,4.563,4.563,0,0,1,3.237,1.015,3.956,3.956,0,0,1,1.069,3.007v4.813c0,.634.266.954.8.954h.417Zm-3.032-3.1a10.041,10.041,0,0,0-1.775-.411,13.182,13.182,0,0,0-1.884-.133,6.217,6.217,0,0,0-1.2.109,2.977,2.977,0,0,0-.948.344,1.737,1.737,0,0,0-.622.616,1.776,1.776,0,0,0-.224.924,1.666,1.666,0,0,0,.61,1.371,2.666,2.666,0,0,0,1.709.489,5.227,5.227,0,0,0,2.367-.537,7.2,7.2,0,0,0,1.969-1.455Z" transform="translate(-1525.6 -288.394)" fill="#333"/>
    <path id="Path_3774" data-name="Path 3774" d="M1774.32,290.208h-.99a.791.791,0,0,1-.586-.181,1.257,1.257,0,0,1,0-1.28.791.791,0,0,1,.586-.181h1.92a.791.791,0,0,1,.586.181.922.922,0,0,1,.175.64v.966a5.45,5.45,0,0,1,1.745-1.516,4.6,4.6,0,0,1,2.2-.537,5.551,5.551,0,0,1,2.077.38,4.663,4.663,0,0,1,1.649,1.093,5.11,5.11,0,0,1,1.093,1.739,7.014,7.014,0,0,1,0,4.662,5.052,5.052,0,0,1-1.093,1.739,4.718,4.718,0,0,1-1.649,1.093,5.551,5.551,0,0,1-2.077.38,4.628,4.628,0,0,1-2.156-.489,5.157,5.157,0,0,1-1.673-1.4v5.333h2.681a.791.791,0,0,1,.586.181,1.258,1.258,0,0,1,0,1.28.791.791,0,0,1-.586.181h-5.852a.791.791,0,0,1-.586-.181,1.257,1.257,0,0,1,0-1.28.791.791,0,0,1,.586-.181h1.353V290.208Zm1.812,3.642a4.244,4.244,0,0,0,.278,1.594,3.331,3.331,0,0,0,.773,1.178,3.371,3.371,0,0,0,1.178.731,4.206,4.206,0,0,0,1.48.254,3.605,3.605,0,0,0,1.461-.278,2.989,2.989,0,0,0,1.075-.779,3.414,3.414,0,0,0,.664-1.19,5.084,5.084,0,0,0,0-3.02,3.415,3.415,0,0,0-.664-1.19,2.99,2.99,0,0,0-1.075-.779,3.605,3.605,0,0,0-1.461-.278,4.206,4.206,0,0,0-1.48.254,3.371,3.371,0,0,0-1.178.731,3.332,3.332,0,0,0-.773,1.178A4.244,4.244,0,0,0,1776.132,293.85Z" transform="translate(-1757.308 -288.3)" fill="#333"/>
    <path id="Path_3775" data-name="Path 3775" d="M2042.62,290.208h-.99a.791.791,0,0,1-.586-.181,1.256,1.256,0,0,1,0-1.28.791.791,0,0,1,.586-.181h1.92a.792.792,0,0,1,.586.181.922.922,0,0,1,.175.64v.966a5.449,5.449,0,0,1,1.745-1.516,4.6,4.6,0,0,1,2.2-.537,5.552,5.552,0,0,1,2.077.38,4.665,4.665,0,0,1,1.649,1.093,5.114,5.114,0,0,1,1.093,1.739,7.014,7.014,0,0,1,0,4.662,5.056,5.056,0,0,1-1.093,1.739,4.718,4.718,0,0,1-1.649,1.093,5.552,5.552,0,0,1-2.077.38,4.63,4.63,0,0,1-2.156-.489,5.158,5.158,0,0,1-1.673-1.4v5.333h2.681a.79.79,0,0,1,.586.181,1.257,1.257,0,0,1,0,1.28.79.79,0,0,1-.586.181h-5.852a.791.791,0,0,1-.586-.181,1.257,1.257,0,0,1,0-1.28.791.791,0,0,1,.586-.181h1.353V290.208Zm1.818,3.642a4.242,4.242,0,0,0,.278,1.594,3.334,3.334,0,0,0,.773,1.178,3.372,3.372,0,0,0,1.178.731,4.207,4.207,0,0,0,1.48.254,3.6,3.6,0,0,0,1.461-.278,2.988,2.988,0,0,0,1.075-.779,3.409,3.409,0,0,0,.665-1.19,5.081,5.081,0,0,0,0-3.02,3.409,3.409,0,0,0-.665-1.19,2.989,2.989,0,0,0-1.075-.779,3.6,3.6,0,0,0-1.461-.278,4.206,4.206,0,0,0-1.48.254,3.373,3.373,0,0,0-1.178.731,3.334,3.334,0,0,0-.773,1.178A4.242,4.242,0,0,0,2044.438,293.85Z" transform="translate(-2009.405 -288.3)" fill="#333"/>
    <path id="Path_3776" data-name="Path 3776" d="M2341.312,299.407a.781.781,0,0,1-.2.6,1.468,1.468,0,0,1-1.413,0,.782.782,0,0,1-.2-.6v-2.9a.782.782,0,0,1,.2-.6,1.058,1.058,0,0,1,.707-.181.639.639,0,0,1,.41.121.893.893,0,0,1,.242.374,3.048,3.048,0,0,0,1.461,1.7,5.886,5.886,0,0,0,2.694.525,3.751,3.751,0,0,0,2.174-.513,1.582,1.582,0,0,0,.725-1.347.9.9,0,0,0-.278-.695,1.973,1.973,0,0,0-.749-.417,6.023,6.023,0,0,0-1.232-.266c-.465-.054-.96-.115-1.474-.169s-1.032-.127-1.54-.217a7.5,7.5,0,0,1-1.419-.387,3.647,3.647,0,0,1-.749-.386,2.512,2.512,0,0,1-.586-.544,2.45,2.45,0,0,1-.386-.725,2.975,2.975,0,0,1-.139-.942,2.951,2.951,0,0,1,1.226-2.476,4.07,4.07,0,0,1,1.353-.64,6.755,6.755,0,0,1,3.865.139,5.07,5.07,0,0,1,1.649.972v-.544a.782.782,0,0,1,.2-.6,1.468,1.468,0,0,1,1.413,0,.782.782,0,0,1,.2.6v2.295a.782.782,0,0,1-.2.6,1.057,1.057,0,0,1-.707.181.6.6,0,0,1-.58-.314,3.262,3.262,0,0,0-.67-.87,3,3,0,0,0-.906-.556,4.62,4.62,0,0,0-1.129-.29,10.047,10.047,0,0,0-1.316-.085,3.467,3.467,0,0,0-1.83.411,1.3,1.3,0,0,0-.658,1.172.828.828,0,0,0,.26.64,1.839,1.839,0,0,0,.719.387,5.886,5.886,0,0,0,1.184.248c.453.054.924.1,1.425.157s1,.115,1.51.193a7.111,7.111,0,0,1,1.413.356,4.723,4.723,0,0,1,.821.4,2.648,2.648,0,0,1,.646.568,2.507,2.507,0,0,1,.423.773,3.1,3.1,0,0,1,.151,1.021,3.465,3.465,0,0,1-.308,1.474,3.17,3.17,0,0,1-.906,1.141,4.27,4.27,0,0,1-1.473.737,6.975,6.975,0,0,1-2,.26,6.642,6.642,0,0,1-2.3-.362,4.7,4.7,0,0,1-1.721-1.1Z" transform="translate(-2290.347 -288.488)" fill="#333"/>
  </g>
</svg>
