<svg xmlns="http://www.w3.org/2000/svg" width="22.957" height="28.682" viewBox="0 0 22.957 28.682">
  <g id="shopping-bag" transform="translate(-48.8)">
    <path id="Path_3779" data-name="Path 3779" d="M71.751,24.793,70.109,6.3a.79.79,0,0,0-.786-.721H65.945a5.667,5.667,0,0,0-11.332,0H51.234a.786.786,0,0,0-.786.721L48.806,24.793c0,.023-.006.047-.006.07a4.087,4.087,0,0,0,4.305,3.818H67.452a4.087,4.087,0,0,0,4.305-3.818A.285.285,0,0,0,71.751,24.793ZM60.279,1.584a4.087,4.087,0,0,1,4.082,3.994H56.2A4.087,4.087,0,0,1,60.279,1.584ZM67.452,27.1H53.105a2.527,2.527,0,0,1-2.722-2.2L51.956,7.168h2.651v2.4a.792.792,0,1,0,1.584,0v-2.4h8.17v2.4a.792.792,0,1,0,1.584,0v-2.4H68.6L70.173,24.9A2.531,2.531,0,0,1,67.452,27.1Z" fill="#00a9a2"/>
  </g>
</svg>
